<svg xmlns="http://www.w3.org/2000/svg" viewBox="0 0 1480 714" font-family="-apple-system, 'Segoe UI', 'PingFang SC', 'Microsoft YaHei', sans-serif"><rect x="0" y="0" width="1480" height="714" fill="#fcfcfb"/><rect x="26" y="380" width="1428" height="68" rx="12" fill="#fde3d3" opacity="0.55"/><text x="740.0" y="48" text-anchor="middle" font-size="26" font-weight="700" fill="#0b0b0b">一个包在线程里的调用栈</text><text x="740.0" y="76" text-anchor="middle" font-size="14" font-weight="400" fill="#52514e">两种驱动方式，最后都汇到同一个 for 循环：同一个包，在同一个线程的调用栈上走完整条工位链</text><text x="50" y="118" text-anchor="start" font-size="17" font-weight="800" fill="#0b0b0b" font-family="'SF Mono', Menlo, Consolas, monospace">pktacqloop</text><text x="168" y="118" text-anchor="start" font-size="13" font-weight="400" fill="#52514e">workers 线程 / autofp 抓包线程</text><text x="780" y="118" text-anchor="start" font-size="17" font-weight="800" fill="#0b0b0b" font-family="'SF Mono', Menlo, Consolas, monospace">varslot</text><text x="866" y="118" text-anchor="start" font-size="13" font-weight="400" fill="#52514e">autofp 处理线程</text><rect x="50" y="140" width="650" height="52" rx="9" fill="#e1e0d9" stroke="#c3c2b7" stroke-width="1.2"/><text x="64" y="161" text-anchor="start" font-size="13.5" font-weight="700" fill="#0b0b0b" font-family="'SF Mono', Menlo, Consolas, monospace">TmThreadsSlotPktAcqLoop()</text><text x="688" y="161" text-anchor="end" font-size="11" font-weight="400" fill="#898781" font-family="'SF Mono', Menlo, Consolas, monospace">tm-threads.c:310</text><text x="64" y="181" text-anchor="start" font-size="11.5" font-weight="400" fill="#52514e">线程主函数：初始化各 slot → 等放行 → 调用链头的 PktAcqLoop</text><rect x="84" y="202" width="616" height="52" rx="9" fill="#e3eefb" stroke="#6da7ec" stroke-width="1.2"/><text x="98" y="223" text-anchor="start" font-size="13.5" font-weight="700" fill="#184f95" font-family="'SF Mono', Menlo, Consolas, monospace">ReceiveAFPLoop()</text><text x="688" y="223" text-anchor="end" font-size="11" font-weight="400" fill="#898781" font-family="'SF Mono', Menlo, Consolas, monospace">source-af-packet.c:1300</text><text x="98" y="243" text-anchor="start" font-size="11.5" font-weight="400" fill="#52514e">链头 ReceiveAFP 的抓包循环，开头先记下 ptv->slot = s->slot_next</text><rect x="118" y="264" width="582" height="52" rx="9" fill="#e3eefb" stroke="#6da7ec" stroke-width="1.2"/><text x="132" y="285" text-anchor="start" font-size="13.5" font-weight="700" fill="#184f95" font-family="'SF Mono', Menlo, Consolas, monospace">AFPReadFromRing()</text><text x="688" y="285" text-anchor="end" font-size="11" font-weight="400" fill="#898781" font-family="'SF Mono', Menlo, Consolas, monospace">source-af-packet.c:887</text><text x="132" y="305" text-anchor="start" font-size="11.5" font-weight="400" fill="#52514e">从环形缓冲区取一帧，装进 Packet</text><rect x="152" y="326" width="548" height="52" rx="9" fill="#ecebf7" stroke="#8a7fd0" stroke-width="1.2"/><text x="166" y="347" text-anchor="start" font-size="13.5" font-weight="700" fill="#4a3aa7" font-family="'SF Mono', Menlo, Consolas, monospace">TmThreadsSlotProcessPkt()</text><text x="688" y="347" text-anchor="end" font-size="11" font-weight="400" fill="#898781" font-family="'SF Mono', Menlo, Consolas, monospace">tm-threads.h:195</text><text x="166" y="367" text-anchor="start" font-size="11.5" font-weight="400" fill="#52514e">把包交给 ptv->slot，也就是链上剩下的工位</text><rect x="186" y="388" width="514" height="52" rx="9" fill="#fff1e8" stroke="#eb6834" stroke-width="2"/><text x="200" y="409" text-anchor="start" font-size="13.5" font-weight="700" fill="#c24e1f" font-family="'SF Mono', Menlo, Consolas, monospace">TmThreadsSlotVarRun()</text><text x="688" y="409" text-anchor="end" font-size="11" font-weight="400" fill="#898781" font-family="'SF Mono', Menlo, Consolas, monospace">tm-threads.c:133</text><text x="200" y="429" text-anchor="start" font-size="11.5" font-weight="400" fill="#52514e">for 循环，顺着 slot_next 逐个调用 SlotFunc</text><rect x="220" y="450" width="480" height="38" rx="9" fill="#ffffff" stroke="#f3b394" stroke-width="1.2"/><text x="234" y="474" text-anchor="start" font-size="13.5" font-weight="700" fill="#c24e1f" font-family="'SF Mono', Menlo, Consolas, monospace">DecodeAFP()</text><text x="688" y="474" text-anchor="end" font-size="11" font-weight="400" fill="#898781" font-family="'SF Mono', Menlo, Consolas, monospace">source-af-packet.c:2771</text><rect x="220" y="498" width="480" height="38" rx="9" fill="#ffffff" stroke="#f3b394" stroke-width="1.2"/><text x="234" y="522" text-anchor="start" font-size="13.5" font-weight="700" fill="#c24e1f" font-family="'SF Mono', Menlo, Consolas, monospace">FlowWorker()</text><text x="688" y="522" text-anchor="end" font-size="11" font-weight="400" fill="#898781" font-family="'SF Mono', Menlo, Consolas, monospace">flow-worker.c:559</text><rect x="220" y="546" width="480" height="38" rx="9" fill="#ffffff" stroke="#f3b394" stroke-width="1.2"/><text x="234" y="570" text-anchor="start" font-size="13.5" font-weight="700" fill="#c24e1f" font-family="'SF Mono', Menlo, Consolas, monospace">RespondRejectFunc()</text><text x="688" y="570" text-anchor="end" font-size="11" font-weight="400" fill="#898781" font-family="'SF Mono', Menlo, Consolas, monospace">respond-reject.c:65</text><rect x="186" y="594" width="514" height="52" rx="9" fill="#ecebf7" stroke="#8a7fd0" stroke-width="1.2"/><text x="200" y="615" text-anchor="start" font-size="13.5" font-weight="700" fill="#4a3aa7" font-family="'SF Mono', Menlo, Consolas, monospace">tv->tmqh_out(tv, p)</text><text x="200" y="635" text-anchor="start" font-size="11.5" font-weight="400" fill="#52514e">workers：还回包池　autofp：按流哈希塞进 pickup 队列</text><path d="M 64 192 L 64 228.0 L 84 228.0" fill="none" stroke="#c3c2b7" stroke-width="1.5"/><path d="M 98 254 L 98 290.0 L 118 290.0" fill="none" stroke="#c3c2b7" stroke-width="1.5"/><path d="M 132 316 L 132 352.0 L 152 352.0" fill="none" stroke="#c3c2b7" stroke-width="1.5"/><path d="M 166 378 L 166 414.0 L 186 414.0" fill="none" stroke="#c3c2b7" stroke-width="1.5"/><path d="M 200 440 L 200 469.0 L 220 469.0" fill="none" stroke="#c3c2b7" stroke-width="1.5"/><path d="M 200 440 L 200 517.0 L 220 517.0" fill="none" stroke="#c3c2b7" stroke-width="1.5"/><path d="M 200 440 L 200 565.0 L 220 565.0" fill="none" stroke="#c3c2b7" stroke-width="1.5"/><path d="M 166 378 L 166 620.0 L 186 620.0" fill="none" stroke="#c3c2b7" stroke-width="1.5"/><rect x="780" y="264" width="650" height="52" rx="9" fill="#e1e0d9" stroke="#c3c2b7" stroke-width="1.2"/><text x="794" y="285" text-anchor="start" font-size="13.5" font-weight="700" fill="#0b0b0b" font-family="'SF Mono', Menlo, Consolas, monospace">TmThreadsSlotVar()</text><text x="1418" y="285" text-anchor="end" font-size="11" font-weight="400" fill="#898781" font-family="'SF Mono', Menlo, Consolas, monospace">tm-threads.c:410</text><text x="794" y="305" text-anchor="start" font-size="11.5" font-weight="400" fill="#52514e">线程主函数：初始化各 slot → 等放行 → while 循环取包</text><rect x="814" y="326" width="616" height="52" rx="9" fill="#ecebf7" stroke="#8a7fd0" stroke-width="1.2"/><text x="828" y="347" text-anchor="start" font-size="13.5" font-weight="700" fill="#4a3aa7" font-family="'SF Mono', Menlo, Consolas, monospace">tv->tmqh_in(tv)</text><text x="1418" y="347" text-anchor="end" font-size="11" font-weight="400" fill="#898781" font-family="'SF Mono', Menlo, Consolas, monospace">tmqh-flow.c:98</text><text x="828" y="367" text-anchor="start" font-size="11.5" font-weight="400" fill="#52514e">TmqhInputFlow：从自己那条 pickup 队列取一个包</text><rect x="814" y="388" width="616" height="52" rx="9" fill="#fff1e8" stroke="#eb6834" stroke-width="2"/><text x="828" y="409" text-anchor="start" font-size="13.5" font-weight="700" fill="#c24e1f" font-family="'SF Mono', Menlo, Consolas, monospace">TmThreadsSlotVarRun()</text><text x="1418" y="409" text-anchor="end" font-size="11" font-weight="400" fill="#898781" font-family="'SF Mono', Menlo, Consolas, monospace">tm-threads.c:133</text><text x="828" y="429" text-anchor="start" font-size="11.5" font-weight="400" fill="#52514e">同一个函数：顺着 slot_next 逐个调用 SlotFunc</text><rect x="848" y="450" width="582" height="38" rx="9" fill="#ffffff" stroke="#f3b394" stroke-width="1.2"/><text x="862" y="474" text-anchor="start" font-size="13.5" font-weight="700" fill="#c24e1f" font-family="'SF Mono', Menlo, Consolas, monospace">FlowWorker()</text><text x="1418" y="474" text-anchor="end" font-size="11" font-weight="400" fill="#898781" font-family="'SF Mono', Menlo, Consolas, monospace">flow-worker.c:559</text><rect x="848" y="498" width="582" height="38" rx="9" fill="#ffffff" stroke="#f3b394" stroke-width="1.2"/><text x="862" y="522" text-anchor="start" font-size="13.5" font-weight="700" fill="#c24e1f" font-family="'SF Mono', Menlo, Consolas, monospace">RespondRejectFunc()</text><text x="1418" y="522" text-anchor="end" font-size="11" font-weight="400" fill="#898781" font-family="'SF Mono', Menlo, Consolas, monospace">respond-reject.c:65</text><rect x="814" y="546" width="616" height="52" rx="9" fill="#ecebf7" stroke="#8a7fd0" stroke-width="1.2"/><text x="828" y="567" text-anchor="start" font-size="13.5" font-weight="700" fill="#4a3aa7" font-family="'SF Mono', Menlo, Consolas, monospace">tv->tmqh_out(tv, p)</text><text x="1418" y="567" text-anchor="end" font-size="11" font-weight="400" fill="#898781" font-family="'SF Mono', Menlo, Consolas, monospace">tmqh-packetpool.c:305</text><text x="828" y="587" text-anchor="start" font-size="11.5" font-weight="400" fill="#52514e">TmqhOutputPacketpool：还回包池</text><path d="M 794 316 L 794 352.0 L 814 352.0" fill="none" stroke="#c3c2b7" stroke-width="1.5"/><path d="M 794 316 L 794 414.0 L 814 414.0" fill="none" stroke="#c3c2b7" stroke-width="1.5"/><path d="M 828 440 L 828 469.0 L 848 469.0" fill="none" stroke="#c3c2b7" stroke-width="1.5"/><path d="M 828 440 L 828 517.0 L 848 517.0" fill="none" stroke="#c3c2b7" stroke-width="1.5"/><path d="M 794 316 L 794 572.0 L 814 572.0" fill="none" stroke="#c3c2b7" stroke-width="1.5"/><path d="M 186 620.0 L 28 620.0 L 28 290.0 L 116 290.0" fill="none" stroke="#898781" stroke-width="1.6" stroke-dasharray="5,4"/><polygon points="110,285.0 118,290.0 110,295.0" fill="#898781"/><text x="20" y="429.0" text-anchor="middle" font-size="11.5" fill="#898781" transform="rotate(-90 20 429.0)">抓下一个包</text><path d="M 1430 572.0 L 1452 572.0 L 1452 352.0 L 1432 352.0" fill="none" stroke="#898781" stroke-width="1.6" stroke-dasharray="5,4"/><polygon points="1438,347.0 1430,352.0 1438,357.0" fill="#898781"/><text x="1460" y="436.0" text-anchor="middle" font-size="11.5" fill="#898781" transform="rotate(90 1460 436.0)">取下一个包</text><path d="M 700 620.0 L 740.0 620.0 L 740.0 352.0 L 812 352.0" fill="none" stroke="#8a7fd0" stroke-width="1.8" stroke-dasharray="6,4"/><polygon points="806,347.0 814,352.0 806,357.0" fill="#8a7fd0"/><text x="731.0" y="486.0" text-anchor="middle" font-size="11.5" fill="#4a3aa7" transform="rotate(-90 731.0 486.0)">autofp：经 pickup 队列交给处理线程</text><text x="50" y="686" text-anchor="start" font-size="12" font-weight="400" fill="#898781">省略了错误处理，以及解码拆出隧道内层包时的伪包处理。</text></svg>